<svg xmlns="http://www.w3.org/2000/svg" id="Layer_2" data-name="Layer 2" viewBox="0 0 1174.4 296.19"><defs><style>.cls-1{fill:#fff}</style></defs><g id="Layer_1-2" data-name="Layer 1"><path d="m454.27 40.65-15.48 72.79h73.87l-4.89 22.27H399.82l13.11-61.59c15.51-12.56 25.83-20.92 41.34-33.47Zm61.25 52.82c0-3.26.27-6.65 1.09-10.18 5.97-27.43 35.57-45.36 71.97-45.36s63.96 17.25 63.96 45.08c0 3.26-.41 6.52-1.09 10.05-5.97 27.43-35.58 45.36-71.83 45.36s-64.09-17.25-64.09-44.95h-.01Zm101.17-3.67c.41-1.9.54-3.8.54-5.7 0-13.99-11.81-22.68-30.28-22.68s-32.32 9.64-35.58 25.26c-.41 2.04-.68 3.94-.68 5.7 0 13.85 11.95 22.54 30.42 22.54s32.32-9.51 35.58-25.12Zm42.77 3.67c0-3.26.27-6.65 1.09-10.18 5.97-27.43 35.58-45.36 71.97-45.36s63.96 17.25 63.96 45.08c0 3.26-.41 6.52-1.09 10.05-5.97 27.43-35.58 45.36-71.83 45.36s-64.09-17.25-64.09-44.95Zm101.17-3.67c.41-1.9.54-3.8.54-5.7 0-13.99-11.81-22.68-30.28-22.68s-32.32 9.64-35.58 25.26c-.41 2.04-.68 3.94-.68 5.7 0 13.85 11.95 22.54 30.42 22.54s32.32-9.51 35.58-25.12Zm54.05-49.15h77c23.22 0 36.94 11 36.94 27.97 0 2.04-.14 4.21-.54 6.38-3.8 18.88-20.1 29.47-43.05 29.47h-49.84l-6.65 31.23h-34.08l20.22-95.05Zm29.33 21.86-4.48 21.05h40.87c10.05 0 14.26-6.38 14.26-12.36s-4.35-8.69-12.63-8.69h-38.02Zm98.59-21.86h109.18l-4.75 22h-74.96l-3.26 14.8h56.35l-4.35 20.64h-56.35l-3.53 16.3h75.09l-4.48 21.32H922.36l20.23-95.06h.01Zm117.46 0h56.22c35.44 0 58.12 16.97 58.12 41.96 0 2.85-.27 5.84-.81 8.83-5.3 27.43-31.64 44.27-67.35 44.27h-66.4l20.23-95.06Zm29.2 22.81-10.73 49.7h27.97c17.11 0 29.47-8.28 32.45-23.22.41-2.04.68-4.07.68-5.97 0-12.9-10.05-20.51-27.84-20.51h-22.54.01ZM504.38 242.78c-11 9.78-25.66 15.48-42.78 15.48-32.45 0-54.05-17.79-54.05-43.73 0-3.26.41-6.65 1.09-10.18 6.38-29.2 33.13-46.31 71.16-46.31 32.32 0 60.97 13.71 65.05 38.84h-35.17c-4.21-10.59-16.57-16.16-30.55-16.16-18.06 0-32.18 10.05-35.58 26.21-.41 2.17-.68 4.21-.68 6.25 0 15.21 13.44 23.36 29.88 23.36 13.31 0 24.71-5.3 31.37-14.12h-30.55l3.94-18.6h66.27l-11.13 51.87h-30.96l2.72-12.9h-.03Zm106.33-82.02h37.21l33.81 95.06h-35.17l-5.57-17.79h-54.18l-13.04 17.79H536.7l74.01-95.06Zm-9.64 57.85h33.95l-10.05-32.73-23.9 32.73Zm105.24-57.85h44.68l6.65 31.37 6.52 31.5 20.1-31.5 19.96-31.37h47.39l-20.37 95.06h-30.96l10.18-47.66 3.67-16.97-10.73 16.97-30.15 47.66h-30.28l-9.91-47.66-3.39-16.7-3.53 16.7-10.18 47.66h-29.88l20.23-95.06Zm155.63 0h33.95l-20.23 95.06h-33.95l20.23-95.06Zm44.27 0h36.26l20.37 30.69 20.37 31.1 6.52-31.1 6.65-30.69h29.33l-20.23 95.06h-36.39l-20.37-30.69-20.37-31.1-6.52 31.1-6.38 30.69h-29.47l20.23-95.06Zm213.87 82.02c-11 9.78-25.66 15.48-42.78 15.48-32.45 0-54.05-17.79-54.05-43.73 0-3.26.41-6.65 1.09-10.18 6.38-29.2 33.13-46.31 71.16-46.31 32.32 0 60.97 13.71 65.05 38.84h-35.17c-4.21-10.59-16.57-16.16-30.55-16.16-18.06 0-32.18 10.05-35.58 26.21-.41 2.17-.68 4.21-.68 6.25 0 15.21 13.44 23.36 29.88 23.36 13.31 0 24.71-5.3 31.37-14.12h-30.55l3.94-18.6h66.27l-11.13 51.87h-30.96l2.72-12.9h-.03Z" class="cls-1" data-name="Layer 1-2"/><g id="Layer_1-2-2" data-name="Layer 1-2"><path d="m374.21 22.72-39.6 49.84-100.67-.31c-46.48 0-87.45 37.68-91.51 84.15H92.02c6.51-74.31 72.01-134.56 146.33-134.56l135.86.86v.02Z" class="cls-1"/><path d="M43.54 0 3.02 166.69c-16.04 65.97 33.94 129.51 101.82 129.5l202.48-.07 40.33-50.53-230.02.09c-36.78 0-63.91-34.33-55.4-70.1L104 0H43.54Z" class="cls-1"/><path d="M106.44 220.51h220.54l32.84-122.6h-128.4l-45.28 42.24 101.67-.75-9.28 30.04-113.59.98-58.5 50.09z" class="cls-1"/></g></g></svg>